<svg xmlns="http://www.w3.org/2000/svg" viewBox="0 0 48 48">
  <path fill="#00ADD8" d="M24 4C12.954 4 4 12.954 4 24s8.954 20 20 20 20-8.954 20-20S35.046 4 24 4z"/>
  <path fill="#FFF" d="M24 8c8.837 0 16 7.163 16 16s-7.163 16-16 16S8 32.837 8 24 15.163 8 24 8z"/>
  <path fill="#00ADD8" d="M14.5 19.5h7v1.5h-7zM14.5 22h5v1.5h-5zM14.5 24.5h6v1.5h-6z"/>
  <path fill="#00ADD8" d="M26 19.5c0-.828.672-1.5 1.5-1.5h6c.828 0 1.5.672 1.5 1.5v6c0 .828-.672 1.5-1.5 1.5h-6c-.828 0-1.5-.672-1.5-1.5v-6z"/>
  <path fill="#FFF" d="M28 21h4v1h-4zM28 23h4v1h-4z"/>
</svg>